<svg id="Layer_1" data-name="Layer 1" xmlns="http://www.w3.org/2000/svg" viewBox="0 0 512 512"><defs><style>.cls-1{fill:#141f38;}</style></defs><title>speech-bubble-9-glyph</title><path class="cls-1" d="M241.78,185.19a71.11,71.11,0,0,0-71.11,71.11v71.11H45.11l-8.33,8.33L0,372.52V85.63A42.71,42.71,0,0,1,42.67,43H384a42.71,42.71,0,0,1,42.67,42.67v99.56ZM512,256.3V457.93L475.25,421.1l-8.33-8.35H241.78a42.72,42.72,0,0,1-42.67-42.67V256.3a42.71,42.71,0,0,1,42.67-42.67H469.33A42.71,42.71,0,0,1,512,256.3ZM327.11,313.19a14.22,14.22,0,1,0-14.22,14.22A14.22,14.22,0,0,0,327.11,313.19Zm42.67,0a14.22,14.22,0,1,0-14.22,14.22A14.22,14.22,0,0,0,369.78,313.19Zm42.67,0a14.22,14.22,0,1,0-14.22,14.22A14.22,14.22,0,0,0,412.44,313.19Z"/></svg>