<svg id="Layer_1" data-name="Layer 1" xmlns="http://www.w3.org/2000/svg" xmlns:xlink="http://www.w3.org/1999/xlink" viewBox="0 0 512 512"><defs><linearGradient id="linear-gradient" x1="19.96" y1="-1211.35" x2="382.01" y2="-1573.39" gradientTransform="translate(1098.43 1382.66) rotate(-45)" gradientUnits="userSpaceOnUse"><stop offset="0" stop-color="#231f20"/><stop offset="1" stop-color="#58595b"/></linearGradient></defs><title>phone</title><path d="M469.27,19.73a5.76,5.76,0,0,1-.57-.42,27.65,27.65,0,0,0-6.35-4.3c-68.54-46.25-227,20.18-327.09,120.26C35.4,235.1-31.24,393.78,15,462.35a27.29,27.29,0,0,0,4.3,6.35c.18.18.25.39.42.6l0,0c.11.11.14.21.25.32l34,34c12.59,12.59,34.92,10.9,49.57-3.77l64.63-64.63c14.68-14.68,16.37-36.93,3.77-49.56l-6.28-6.24s-53.73-44.17-65-41c5.57-48.19,35.74-107.63,82.9-154.8,44.06-44.06,105.37-75.92,154.65-82.41-2.93,11.18,41.17,64.56,41.17,64.56l6.28,6.28c12.59,12.59,34.89,10.9,49.56-3.77l64.63-64.63c14.68-14.64,16.37-37,3.74-49.57L469.59,20.05c-.11-.1-.25-.18-.35-.28Z" fill="url(#linear-gradient)"/></svg>